<svg width="360" height="515" viewBox="0 0 360 515" fill="none" xmlns="http://www.w3.org/2000/svg">
<ellipse cx="230.5" cy="200" rx="19.5" ry="19" fill="#fff"/>
<ellipse cx="170" cy="291.5" rx="10" ry="9.5" fill="#fff"/>
<ellipse cx="183" cy="182.5" rx="10" ry="9.5" fill="#fff"/>
<ellipse cx="163.5" cy="229" rx="19.5" ry="19" fill="#fff"/>
<ellipse cx="124.5" cy="302" rx="19.5" ry="19" fill="#fff"/>
<ellipse cx="230.5" cy="313" rx="19.5" ry="19" fill="#fff"/>
<ellipse cx="219.5" cy="272" rx="19.5" ry="19" fill="#fff"/>
<ellipse cx="113.5" cy="219" rx="19.5" ry="19" fill="#fff"/>
<path fill-rule="evenodd" clip-rule="evenodd" d="M195.441 10.0169C189.423 -3.33894 170.459 -3.33896 164.442 10.0168L1.51993 371.632C-3.5488 382.882 4.68 395.615 17.0195 395.615H18.8899C20.0288 395.615 20.5982 395.615 21.1589 395.551C21.7956 395.479 22.4238 395.346 23.035 395.154C23.5733 394.984 24.0938 394.753 25.1349 394.292L138.379 344.053C138.492 344.003 138.548 343.978 138.6 343.954C142.121 342.344 144.396 338.846 144.44 334.974C144.441 334.917 144.441 334.855 144.441 334.731V334.731C144.441 334.453 144.441 334.313 144.441 334.262C144.402 330.531 142.827 327.761 139.639 325.822C139.595 325.795 139.351 325.65 138.862 325.359C115.259 311.326 99.4411 285.568 99.4411 256.115C99.4411 211.656 135.482 175.615 179.941 175.615C224.4 175.615 260.441 211.656 260.441 256.115C260.441 285.022 245.204 310.37 222.324 324.567C221.407 325.136 220.948 325.421 220.735 325.569C217.977 327.486 216.629 329.908 216.455 333.262C216.441 333.521 216.441 333.894 216.441 334.638V334.638C216.441 335.279 216.441 335.599 216.459 335.893C216.667 339.417 218.717 342.57 221.854 344.189C222.116 344.325 222.409 344.455 222.994 344.714L334.747 394.292C335.788 394.753 336.309 394.984 336.847 395.154C337.458 395.346 338.087 395.479 338.723 395.551C339.284 395.615 339.853 395.615 340.992 395.615H342.863C355.202 395.615 363.431 382.882 358.362 371.632L195.441 10.0169Z" fill="#fff"/>
<path d="M144.441 363.615H216.441V399.615C216.441 405.138 211.964 409.615 206.441 409.615H154.441C148.918 409.615 144.441 405.138 144.441 399.615V363.615Z" fill="#fff"/>
<circle cx="180.441" cy="409.615" r="10" fill="#fff"/>
<path fill-rule="evenodd" clip-rule="evenodd" d="M197.911 457.657C197.989 457.381 198.057 457.098 198.189 456.843C199.628 454.082 200.441 450.943 200.441 447.615C200.441 436.569 191.487 427.615 180.441 427.615C169.395 427.615 160.441 436.569 160.441 447.615C160.441 450.943 161.254 454.082 162.693 456.843C162.826 457.098 162.894 457.381 162.972 457.657V457.657L178.516 512.788C179.064 514.731 181.818 514.731 182.366 512.788L197.911 457.657V457.657Z" fill="#fff"/>
</svg>
